{"accessors" : [{"bufferView" : 0, "byteOffset" : 0, "componentType" : 5123, "count" : 116160, "type" : "SCALAR", "max" : [46368], "min" : [0]}, {"bufferView" : 1, "byteOffset" : 0, "componentType" : 5126, "count" : 46369, "type" : "VEC3", "max" : [2.3942670822143555, 2.987725019454956, 2.941025972366333], "min" : [-2.394268035888672, -0.12551100552082062, -2.952223062515259], "name" : "POSITION"}, {"bufferView" : 1, "byteOffset" : 12, "componentType" : 5126, "count" : 46369, "type" : "VEC2", "max" : [1, 1], "min" : [0, 0], "name" : "TEXCOORD_0"}, {"bufferView" : 1, "byteOffset" : 20, "componentType" : 5126, "count" : 46369, "type" : "VEC3", "max" : [1.0000044107437134, 1.0000044107437134, 1.0000044107437134], "min" : [-1.0000044107437134, -1.0000044107437134, -1.0000044107437134], "name" : "NORMAL"}], "asset" : {"generator" : "Aspose.3D 24.6.0", "version" : "2.0"}, "buffers" : [{"uri" : "buffer.bin", "byteLength" : 1716136}], "bufferViews" : [{"buffer" : 0, "byteOffset" : 0, "byteLength" : 232320, "target" : 34963}, {"buffer" : 0, "byteOffset" : 232324, "byteLength" : 1483808, "byteStride" : 32, "target" : 34962}], "meshes" : [{"primitives" : [{"attributes" : {"POSITION" : 1, "TEXCOORD_0" : 2, "NORMAL" : 3}, "indices" : 0, "mode" : 4}], "name" : ""}], "nodes" : [{"mesh" : 0, "name" : "Cylinder"}], "scene" : 0, "scenes" : [{"nodes" : [0]}]}